<?xml version="1.0" encoding="utf-8"?>
<!-- Generator: Adobe Illustrator 23.0.1, SVG Export Plug-In . SVG Version: 6.00 Build 0)  -->
<svg version="1.1" id="Layer_1" xmlns="http://www.w3.org/2000/svg" xmlns:xlink="http://www.w3.org/1999/xlink" x="0px" y="0px"
	 viewBox="0 0 300 300" style="enable-background:new 0 0 300 300;" xml:space="preserve">
<style type="text/css">
	.st0{fill:#DC2727;}
	.st1{fill:#273995;}
	.st2{fill:#FFFFFF;}
</style>
<g>
	<path class="st0" d="M216.3,150c0,36.1-29.3,65.4-65.4,65.4c-36.1,0-65.4-29.3-65.4-65.4s29.2-65.4,65.4-65.4
		S216.3,113.9,216.3,150 M150.8,48.6C94.8,48.6,49.5,94,49.5,150s45.4,101.4,101.4,101.4S252.2,206,252.2,150S206.8,48.6,150.8,48.6
		"/>
	<rect x="25.9" y="130.6" class="st1" width="249.5" height="38.9"/>
</g>
<g>
	<path class="st2" d="M49.3,140.1l0.3,0.2l7.1,8.4l7.1-8.4l0.3-0.2h3.2l0.2,0.2v20.4l-0.2,0.2h-3.3l-0.2-0.2v-15.3l-7.1,8.3h-0.3
		l-7.1-8.2v15.3l-0.2,0.2h-3.3l-0.2-0.2v-20.4l0.2-0.2L49.3,140.1L49.3,140.1z"/>
	<path class="st2" d="M75.1,140.1l0.2,0.2v20.4l-0.2,0.2h-3.3l-0.2-0.2v-20.4l0.2-0.2H75.1z"/>
	<path class="st2" d="M82.9,140.1l0.3,0.2l11.9,14.8v-14.8l0.2-0.2h3.3l0.2,0.2v20.4l-0.2,0.2h-3.4l-0.3-0.2l-11.9-14.8v14.8
		l-0.2,0.2h-3.3l-0.2-0.2v-20.4l0.2-0.2L82.9,140.1L82.9,140.1z"/>
	<path class="st2" d="M110.2,140.1c1.7,0,3.2,0.3,4.6,0.8c1.4,0.5,2.6,1.3,3.6,2.2c1,0.9,1.8,2,2.4,3.3c0.6,1.3,0.9,2.6,0.9,4.1
		c0,1.4-0.3,2.8-0.9,4.1c-0.6,1.3-1.3,2.4-2.4,3.3c-1,0.9-2.2,1.7-3.6,2.2s-2.9,0.8-4.6,0.8H103l-0.2-0.2v-20.4l0.2-0.2L110.2,140.1
		L110.2,140.1z M106.4,157.4h3.8c1.1,0,2.1-0.2,3-0.5c0.9-0.3,1.7-0.8,2.4-1.4c0.6-0.6,1.2-1.3,1.5-2.2c0.4-0.9,0.5-1.7,0.5-2.8
		c0-1-0.2-1.9-0.5-2.8c-0.4-0.9-0.9-1.6-1.5-2.2c-0.6-0.6-1.4-1.1-2.4-1.4c-0.9-0.4-1.9-0.5-3-0.5h-3.8V157.4z"/>
	<path class="st2" d="M147.6,140.1l0.2,0.2v3.2l-0.2,0.2h-6.7v17.1l-0.2,0.2h-3.3l-0.2-0.2v-17.1h-6.7l-0.2-0.2v-3.2l0.2-0.2H147.6z
		"/>
	<path class="st2" d="M154,140.1l0.2,0.2v7.7h10.9v-7.7l0.2-0.2h3.3l0.2,0.2v20.4l-0.2,0.2h-3.3l-0.2-0.2v-9.2h-10.9v9.2l-0.2,0.2
		h-3.2l-0.2-0.2v-20.4l0.2-0.2H154z"/>
	<path class="st2" d="M186.6,140.1l0.2,0.2v3.2l-0.2,0.2h-10.2v4.4h7.5l0.2,0.2v3.2l-0.2,0.2h-7.5v6h10.8l0.2,0.2v3.2l-0.2,0.2H173
		l-0.2-0.2v-20.4l0.2-0.2L186.6,140.1L186.6,140.1z"/>
	<path class="st2" d="M216,145.4c-1.1-0.8-2.3-1.3-3.6-1.6c-1.3-0.3-2.6-0.4-4-0.4c-1.1,0-2.1,0.2-3.1,0.6s-1.7,0.9-2.4,1.5
		c-0.7,0.6-1.2,1.4-1.6,2.3c-0.4,0.9-0.6,1.8-0.6,2.8s0.2,1.9,0.6,2.8c0.4,0.9,0.9,1.6,1.6,2.3c0.7,0.6,1.5,1.2,2.5,1.5
		s2,0.5,3.2,0.5c0.7,0,1.4,0,2.1-0.2c0.7-0.1,1.4-0.3,2-0.6v-4.5H209l-0.2-0.2v-3.1l0.2-0.2h7.3l0.2,0.2v10.1
		c-1.2,0.7-2.4,1.3-3.7,1.6c-1.3,0.4-2.6,0.5-4.1,0.5c-1.7,0-3.2-0.3-4.7-0.8c-1.4-0.6-2.7-1.3-3.8-2.3c-1.1-1-1.9-2.1-2.5-3.4
		c-0.6-1.3-0.9-2.7-0.9-4.3c0-1.5,0.3-2.9,0.9-4.2c0.6-1.3,1.4-2.5,2.5-3.4s2.3-1.7,3.7-2.3c1.4-0.6,3-0.9,4.6-0.9
		c1.5,0,2.9,0.1,4.2,0.4c1.3,0.2,2.5,0.7,3.5,1.3v3.9L216,145.4z"/>
	<path class="st2" d="M230.9,140.1l0.2,0.2l8.4,20.4l-0.2,0.2h-3.8l-0.2-0.2l-1.8-4.5h-8.8l-1.8,4.5l-0.2,0.2h-3.8l-0.2-0.2
		l8.4-20.4l0.2-0.2H230.9z M226.2,152.8h6.2l-3.1-8L226.2,152.8z"/>
	<path class="st2" d="M249.2,140.1c1.1,0,2.1,0.2,3.1,0.5c0.9,0.4,1.7,0.8,2.4,1.4c0.6,0.6,1.1,1.3,1.5,2.1c0.4,0.8,0.5,1.6,0.5,2.5
		s-0.2,1.7-0.5,2.5c-0.4,0.8-0.9,1.5-1.5,2.1c-0.6,0.6-1.4,1.1-2.4,1.4c-0.9,0.4-2,0.5-3.1,0.5H246v7.6l-0.2,0.2h-3.3l-0.2-0.2
		v-20.4l0.1-0.2H249.2z M246,149.7h3c1.1,0,2-0.3,2.6-0.8c0.6-0.5,1-1.3,1-2.2c0-0.9-0.3-1.7-1-2.2c-0.6-0.5-1.5-0.8-2.6-0.8h-3
		V149.7z"/>
</g>
</svg>
